<svg xmlns="http://www.w3.org/2000/svg" viewBox="0 0 256 256" width="256" height="256" role="img" aria-label="Obesity icon">
  <path fill="#065f46" fill-rule="nonzero" d="M 214.48 223.00 C 209.30 227.04 199.99 225.64 188.22 222.76 C 189.87 215.76 190.86 208.52 190.86 201.11 C 190.86 184.81 186.99 169.16 179.66 155.83 C 178.76 154.18 176.70 153.60 175.05 154.51 C 173.40 155.41 172.83 157.47 173.73 159.12 C 180.48 171.47 184.02 185.96 184.02 201.11 C 184.02 207.94 183.12 214.61 181.64 221.03 C 180.65 220.78 179.66 220.45 178.59 220.21 C 163.61 216.17 146.65 211.56 128.04 211.56 C 109.35 211.56 92.39 216.17 77.41 220.21 C 76.34 220.45 75.35 220.70 74.36 221.03 C 72.80 214.69 71.89 208.02 71.89 201.11 C 71.89 185.88 75.52 171.39 82.35 159.12 C 83.25 157.47 82.60 155.41 81.03 154.51 C 79.39 153.60 77.33 154.18 76.42 155.83 C 69.01 169.08 65.14 184.72 65.14 201.11 C 65.14 208.60 66.13 215.84 67.78 222.76 C 56.00 225.64 46.70 227.04 41.51 223.00 C 37.23 219.79 35.18 212.63 35.18 201.11 C 35.18 149.90 76.83 108.24 128.04 108.24 C 179.17 108.24 220.82 149.90 220.82 201.11 C 220.82 212.63 218.77 219.79 214.48 223.00 Z M 94.04 61.15 C 94.04 42.46 109.27 27.23 128.04 27.23 C 146.73 27.23 161.96 42.46 161.96 61.15 C 161.96 79.84 146.73 95.07 128.04 95.07 C 109.27 95.07 94.04 79.84 94.04 61.15 Z M 130.76 101.57 C 151.92 100.17 168.71 82.64 168.71 61.15 C 168.71 38.67 150.43 20.48 128.04 20.48 C 105.57 20.48 87.29 38.67 87.29 61.15 C 87.29 82.64 104.08 100.17 125.24 101.57 C 71.56 103.05 28.34 147.10 28.34 201.11 C 28.34 215.02 31.22 223.75 37.32 228.44 C 41.02 231.24 45.47 232.31 50.57 232.31 C 58.56 232.31 68.19 229.76 79.22 226.71 C 93.79 222.84 110.26 218.31 128.04 218.31 C 145.74 218.31 162.21 222.84 176.78 226.71 C 194.97 231.65 209.38 235.52 218.68 228.44 C 224.77 223.75 227.66 215.02 227.66 201.11 C 227.66 147.10 184.43 103.05 130.76 101.57"/>
</svg>
